# xmcd
#
# Track frame offsets:
#	180
#	21439
#	46174
#	68887
#	90865
#	113529
#	134996
#	156592
#	178156
#	200085
#	224078
#	244665
#
# Disc length: 3547 seconds
#
# Revision: 0
# Processed by: cddbd v1.5.2PL0 Copyright (c) Steve Scherf et al.
# Submitted via: EasyCDDAExtractor 11.0.3.1
#
DISCID=b60dd90c
DTITLE=Willie Hutch - The Mack Is Back
DYEAR=1998
DGENRE=R&B
TTITLE0=Ode 2 Da Mack
TTITLE1=Here Comes Slick
TTITLE2=You're The One I Choose
TTITLE3=Brother's Theme
TTITLE4=Living Water
TTITLE5=Working For A Living
TTITLE6=Feeling Sexual
TTITLE7=Rock Your Body
TTITLE8=The Other Woman
TTITLE9=Too Right To Be Wrong
TTITLE10=Hiding Place 
TTITLE11=Real Deal
EXTD=
EXTT0=
EXTT1=
EXTT2=
EXTT3=
EXTT4=
EXTT5=
EXTT6=
EXTT7=
EXTT8=
EXTT9=
EXTT10=
EXTT11=
PLAYORDER=
